<svg width="24" height="24" viewBox="0 0 24 24" fill="none" xmlns="http://www.w3.org/2000/svg">
<path fill-rule="evenodd" clip-rule="evenodd" d="M8.13602 1.60248C8.35556 1.95373 8.24877 2.41645 7.89752 2.63598L3.8975 5.13598C3.54624 5.35551 3.08353 5.24873 2.864 4.89748C2.64447 4.54622 2.75125 4.08351 3.1025 3.86398L7.10253 1.36398C7.45378 1.14445 7.91649 1.25123 8.13602 1.60248ZM15.864 1.60248C16.0835 1.25123 16.5462 1.14445 16.8975 1.36398L20.8975 3.86398C21.2488 4.08351 21.3555 4.54623 21.136 4.89748C20.9165 5.24873 20.4538 5.35551 20.1025 5.13598L16.1025 2.63598C15.7512 2.41644 15.6445 1.95373 15.864 1.60248ZM12 4.74998C7.44365 4.74998 3.75 8.44363 3.75 13C3.75 17.5563 7.44365 21.25 12 21.25C16.5563 21.25 20.25 17.5563 20.25 13C20.25 8.44363 16.5563 4.74998 12 4.74998ZM2.25 13C2.25 7.6152 6.61522 3.24998 12 3.24998C17.3848 3.24998 21.75 7.6152 21.75 13C21.75 18.3848 17.3848 22.75 12 22.75C6.61522 22.75 2.25 18.3848 2.25 13ZM14.6517 10.3483C14.9445 10.6412 14.9445 11.1161 14.6517 11.409L13.0606 13L14.6516 14.591C14.9445 14.8839 14.9445 15.3588 14.6516 15.6516C14.3587 15.9445 13.8839 15.9445 13.591 15.6516L12 14.0607L10.409 15.6516C10.1161 15.9445 9.64124 15.9445 9.34835 15.6516C9.05546 15.3587 9.05546 14.8839 9.34835 14.591L10.9393 13L9.34833 11.409C9.05544 11.1161 9.05544 10.6412 9.34833 10.3483C9.64122 10.0555 10.1161 10.0555 10.409 10.3483L12 11.9393L13.591 10.3483C13.8839 10.0554 14.3588 10.0554 14.6517 10.3483Z" fill="#FF6154"/>
</svg>
