<svg width="18" height="29" viewBox="0 0 18 29" fill="none" xmlns="http://www.w3.org/2000/svg">
<path fill-rule="evenodd" clip-rule="evenodd" d="M13.9917 5.84622H13.7736C15.9999 6.8683 17.3324 8.56586 17.3333 10.3811V25.9846C17.3318 27.073 16.0231 27.9551 14.4079 27.9565H3.95541C2.33985 27.9554 1.03057 27.0732 1.02899 25.9846V10.3811C1.03031 8.56577 2.36317 6.86824 4.58965 5.84622H4.36966C4.18092 5.84639 3.99983 5.79594 3.86637 5.70601C3.73291 5.61608 3.65804 5.49405 3.6583 5.36687V2.3817C3.66247 1.49996 4.72194 0.785763 6.03048 0.782593H12.3309C13.6407 0.783654 14.702 1.49908 14.7031 2.3817V5.36687C14.7033 5.49405 14.6285 5.61608 14.495 5.70601C14.3615 5.79594 14.1805 5.84639 13.9917 5.84622ZM5.08008 2.3817V4.88816H13.2851V2.3817C13.2851 2.0273 12.8587 1.74 12.3328 1.74H6.03238C5.50644 1.74 5.08008 2.0273 5.08008 2.3817ZM9.18069 5.84622C12.8959 5.84904 15.9068 7.87761 15.9116 10.3811V11.429C14.7193 13.1186 11.9957 12.6553 7.91985 11.7261C5.50672 11.1749 3.60973 11.7209 2.44983 12.2651V10.3811C2.45455 7.87761 5.46545 5.84904 9.18069 5.84622ZM3.95447 26.9991H14.4079C15.2384 26.998 15.911 26.5442 15.9116 25.9846V12.9594C13.7584 14.0619 10.372 13.2963 7.53607 12.6501C4.84963 12.0354 2.98502 13.1372 2.44983 13.5113V25.9852C2.45088 26.5449 3.12391 26.9984 3.95447 26.9991Z" fill="#4E88F4"/>
<path d="M13.7736 5.84622V5.4839L13.6225 6.17549L13.7736 5.84622ZM13.9917 5.84622L13.992 5.4839H13.9917V5.84622ZM17.3333 10.3811H17.6957V10.3809L17.3333 10.3811ZM17.3333 25.9846L17.6957 25.9851V25.9846H17.3333ZM14.4079 27.9565V28.3188H14.4082L14.4079 27.9565ZM3.95541 27.9565L3.95517 28.3188H3.95541V27.9565ZM1.02899 25.9846H0.666672L0.666673 25.9851L1.02899 25.9846ZM1.02899 10.3811L0.666673 10.3808V10.3811H1.02899ZM4.58965 5.84622L4.7408 6.1755L4.58965 5.4839V5.84622ZM4.36966 5.84622V5.4839L4.36934 5.4839L4.36966 5.84622ZM3.86637 5.70601L4.06884 5.40554L4.06884 5.40554L3.86637 5.70601ZM3.6583 5.36687L4.02061 5.36759V5.36687H3.6583ZM3.6583 2.3817L3.29598 2.37998V2.3817H3.6583ZM6.03048 0.782593V0.420273L6.0296 0.420275L6.03048 0.782593ZM12.3309 0.782593L12.3312 0.420274H12.3309V0.782593ZM14.7031 2.3817H15.0654V2.38127L14.7031 2.3817ZM14.7031 5.36687H14.3408L14.3408 5.36759L14.7031 5.36687ZM14.495 5.70601L14.6975 6.00648V6.00648L14.495 5.70601ZM5.08008 4.88816H4.71776V5.25048H5.08008V4.88816ZM13.2851 4.88816V5.25048H13.6474V4.88816H13.2851ZM15.9116 10.3811H16.2739L16.2739 10.3804L15.9116 10.3811ZM9.18069 5.84622L9.18097 5.4839L9.18042 5.4839L9.18069 5.84622ZM15.9116 11.429L16.2076 11.6379L16.2739 11.5439V11.429H15.9116ZM7.91985 11.7261L7.83916 12.0793L7.83932 12.0793L7.91985 11.7261ZM2.44983 12.2651H2.08751V12.8353L2.60372 12.5931L2.44983 12.2651ZM2.44983 10.3811L2.08751 10.3804V10.3811H2.44983ZM14.4079 26.9991V27.3614L14.4083 27.3614L14.4079 26.9991ZM3.95447 26.9991L3.95416 27.3614H3.95447V26.9991ZM15.9116 25.9846L16.2739 25.9849V25.9846H15.9116ZM15.9116 12.9594H16.2739V12.3669L15.7464 12.6369L15.9116 12.9594ZM7.53607 12.6501L7.45525 13.0033L7.45558 13.0034L7.53607 12.6501ZM2.44983 13.5113L2.24225 13.2143L2.08751 13.3225V13.5113H2.44983ZM2.44983 25.9852H2.08751L2.08751 25.9859L2.44983 25.9852ZM13.7736 6.20854H13.9917V5.4839H13.7736V6.20854ZM17.6957 10.3809C17.6946 8.37374 16.2265 6.57367 13.9248 5.51694L13.6225 6.17549C15.7733 7.16294 16.9702 8.75798 16.971 10.3813L17.6957 10.3809ZM17.6957 25.9846V10.3811H16.971V25.9846H17.6957ZM14.4082 28.3188C15.278 28.3181 16.0816 28.0808 16.6782 27.6786C17.2727 27.2779 17.6946 26.686 17.6957 25.9851L16.971 25.984C16.9705 26.3715 16.7373 26.7649 16.2732 27.0777C15.8113 27.389 15.1529 27.5935 14.4076 27.5942L14.4082 28.3188ZM3.95541 28.3188H14.4079V27.5942H3.95541V28.3188ZM0.666673 25.9851C0.667687 26.6862 1.08981 27.2781 1.68449 27.6788C2.28135 28.081 3.08513 28.3183 3.95517 28.3188L3.95565 27.5942C3.21013 27.5937 2.55149 27.3893 2.08942 27.0779C1.62517 26.7651 1.39187 26.3716 1.39131 25.984L0.666673 25.9851ZM0.666673 10.3811V25.9846H1.39131V10.3811H0.666673ZM4.43849 5.51693C2.13657 6.57358 0.66813 8.3736 0.666673 10.3808L1.39131 10.3813C1.39249 8.75794 2.58976 7.16289 4.7408 6.1755L4.43849 5.51693ZM4.36966 6.20854H4.58965V5.4839H4.36966V6.20854ZM3.6639 6.00648C3.86707 6.14338 4.12177 6.20876 4.36999 6.20854L4.36934 5.4839C4.24007 5.48402 4.1326 5.4485 4.06884 5.40554L3.6639 6.00648ZM3.29598 5.36615C3.29542 5.64623 3.46026 5.86926 3.6639 6.00648L4.06884 5.40554C4.03842 5.38504 4.02536 5.36802 4.02101 5.36093C4.01732 5.35491 4.02063 5.35777 4.02061 5.36759L3.29598 5.36615ZM3.29598 2.3817V5.36687H4.02061V2.3817H3.29598ZM6.0296 0.420275C5.31326 0.42201 4.64891 0.617773 4.15273 0.95225C3.65873 1.28526 3.29881 1.78303 3.29598 2.37998L4.02061 2.38342C4.02196 2.09863 4.19387 1.79843 4.55778 1.55311C4.91951 1.30926 5.43916 1.14635 6.03136 1.14491L6.0296 0.420275ZM12.3309 0.420274H6.03048V1.14491H12.3309V0.420274ZM15.0654 2.38127C15.0647 1.78321 14.7047 1.28441 14.2103 0.951131C13.7137 0.61638 13.0484 0.420855 12.3312 0.420274L12.3306 1.14491C12.9233 1.14539 13.4435 1.30811 13.8053 1.55199C14.1692 1.79735 14.3404 2.09758 14.3408 2.38213L15.0654 2.38127ZM15.0654 5.36687V2.3817H14.3408V5.36687H15.0654ZM14.6975 6.00648C14.9011 5.86926 15.066 5.64624 15.0654 5.36615L14.3408 5.36759C14.3407 5.35777 14.3441 5.35491 14.3404 5.36093C14.336 5.36802 14.323 5.38504 14.2925 5.40554L14.6975 6.00648ZM13.9914 6.20854C14.2396 6.20876 14.4943 6.14338 14.6975 6.00648L14.2925 5.40554C14.2288 5.4485 14.1213 5.48402 13.992 5.4839L13.9914 6.20854ZM5.4424 4.88816V2.3817H4.71776V4.88816H5.4424ZM13.2851 4.52584H5.08008V5.25048H13.2851V4.52584ZM12.9228 2.3817V4.88816H13.6474V2.3817H12.9228ZM12.3328 2.10232C12.5334 2.10232 12.6989 2.15776 12.8037 2.22842C12.9108 2.30056 12.9228 2.36152 12.9228 2.3817H13.6474C13.6474 2.04747 13.4463 1.78759 13.2086 1.62748C12.9688 1.46589 12.6581 1.37768 12.3328 1.37768V2.10232ZM6.03238 2.10232H12.3328V1.37768H6.03238V2.10232ZM5.4424 2.3817C5.4424 2.36152 5.45442 2.30055 5.56147 2.22842C5.66633 2.15776 5.83175 2.10232 6.03238 2.10232V1.37768C5.70707 1.37768 5.39633 1.46589 5.15653 1.62748C4.91892 1.78759 4.71776 2.04747 4.71776 2.3817H5.4424ZM16.2739 10.3804C16.2712 8.97198 15.4229 7.73978 14.14 6.87543C12.8549 6.0096 11.1008 5.48536 9.18097 5.4839L9.18042 6.20853C10.9758 6.2099 12.5848 6.70136 13.7351 7.47639C14.8877 8.2529 15.5472 9.28672 15.5492 10.3818L16.2739 10.3804ZM16.2739 11.429V10.3811H15.5492V11.429H16.2739ZM7.83932 12.0793C9.87054 12.5424 11.6076 12.9004 12.9914 12.9218C14.3799 12.9434 15.5098 12.6267 16.2076 11.6379L15.6155 11.2201C15.1211 11.9208 14.293 12.2173 13.0027 12.1973C11.7076 12.1772 10.045 11.8389 8.00038 11.3728L7.83932 12.0793ZM2.60372 12.5931C3.70959 12.0743 5.52325 11.5503 7.83916 12.0793L8.00053 11.3729C5.49018 10.7994 3.50988 11.3676 2.29594 11.9371L2.60372 12.5931ZM2.08751 10.3811V12.2651H2.81215V10.3811H2.08751ZM9.18042 5.4839C7.26055 5.48536 5.50647 6.0096 4.22137 6.87543C2.93846 7.73978 2.09017 8.97198 2.08751 10.3804L2.81215 10.3818C2.81421 9.28672 3.47374 8.2529 4.62627 7.47639C5.77661 6.70136 7.3856 6.2099 9.18097 6.20853L9.18042 5.4839ZM14.4079 26.6368H3.95447V27.3614H14.4079V26.6368ZM15.5492 25.9842C15.5491 26.1074 15.4752 26.2614 15.2683 26.401C15.0637 26.539 14.7605 26.6363 14.4074 26.6368L14.4083 27.3614C14.8859 27.3608 15.3342 27.2307 15.6736 27.0017C16.0109 26.7741 16.2735 26.4214 16.2739 25.9849L15.5492 25.9842ZM15.5492 12.9594V25.9846H16.2739V12.9594H15.5492ZM7.45558 13.0034C8.8691 13.3255 10.4485 13.6844 11.9469 13.8213C13.439 13.9577 14.9077 13.8804 16.0767 13.2819L15.7464 12.6369C14.7622 13.1408 13.4612 13.232 12.0128 13.0997C10.5708 12.9679 9.03899 12.621 7.61656 12.2969L7.45558 13.0034ZM2.65741 13.8082C3.14783 13.4654 4.90715 12.4202 7.45525 13.0033L7.61689 12.2969C4.79211 11.6505 2.82221 12.8089 2.24225 13.2143L2.65741 13.8082ZM2.81215 25.9852V13.5113H2.08751V25.9852H2.81215ZM3.95477 26.6368C3.60174 26.6365 3.29838 26.5393 3.09355 26.4013C2.88653 26.2618 2.81238 26.1077 2.81215 25.9845L2.08751 25.9859C2.08833 26.4224 2.35122 26.7749 2.68862 27.0022C3.0282 27.2311 3.47664 27.361 3.95416 27.3614L3.95477 26.6368Z" fill="#4E88F4"/>
</svg>
