<svg width="24" height="29" viewBox="0 0 24 29" fill="none" xmlns="http://www.w3.org/2000/svg">
<path d="M5.71855 6.08749C5.42443 6.08749 5.18573 5.84401 5.18573 5.54401V1.35815C5.18573 1.05815 5.42443 0.814667 5.71855 0.814667C6.01267 0.814667 6.25137 1.05815 6.25137 1.35815V5.54401C6.25137 5.84429 6.01294 6.08749 5.71855 6.08749Z" fill="#F76B40" stroke="#F76B40" stroke-width="0.905797"/>
<path d="M8.85582 6.08749C8.5617 6.08749 8.323 5.84401 8.323 5.54401V1.35815C8.323 1.05815 8.5617 0.814667 8.85582 0.814667C9.14994 0.814667 9.38864 1.05815 9.38864 1.35815V5.54401C9.38864 5.84429 9.14994 6.08749 8.85582 6.08749Z" fill="#F76B40" stroke="#F76B40" stroke-width="0.905797"/>
<path d="M12.0677 6.08749C11.7736 6.08749 11.5349 5.84401 11.5349 5.54401V1.35815C11.5349 1.05815 11.7736 0.814667 12.0677 0.814667C12.3618 0.814667 12.6005 1.05815 12.6005 1.35815V5.54401C12.6005 5.84429 12.3618 6.08749 12.0677 6.08749Z" fill="#F76B40" stroke="#F76B40" stroke-width="0.905797"/>
<path d="M16.5577 27.9576H1.2282C0.934078 27.9576 0.695374 27.7141 0.695374 27.4141C0.695374 27.1141 0.934078 26.8707 1.2282 26.8707H16.5577C16.8519 26.8707 17.0906 27.1141 17.0906 27.4141C17.0906 27.7141 16.8521 27.9576 16.5577 27.9576Z" fill="#F76B40" stroke="#F76B40" stroke-width="0.905797"/>
<path d="M18.4026 19.8345H16.7386V18.7475H18.4026C20.4023 18.7475 22.029 17.0878 22.029 15.0475C22.029 13.0076 20.4023 11.3478 18.4026 11.3478H16.7386V10.2609H18.4026C20.99 10.2609 23.0947 12.4081 23.0947 15.0475C23.0947 17.6872 20.99 19.8345 18.4026 19.8345Z" fill="#F76B40" stroke="#F76B40" stroke-width="0.905797"/>
<path fill-rule="evenodd" clip-rule="evenodd" d="M0.695374 17.6785C0.695374 22.2891 4.37291 26.0405 8.8931 26.0405C13.413 26.0405 17.0906 22.2894 17.0906 17.6785V7.51956H0.695374V17.6785ZM1.76102 17.6785V8.60652H16.0249V17.6785C16.0249 21.6899 12.8259 24.9535 8.89311 24.9535C4.96035 24.9535 1.76102 21.6902 1.76102 17.6785Z" fill="#F76B40"/>
<path d="M17.0906 7.51956H17.5435V7.06666H17.0906V7.51956ZM0.695374 7.51956V7.06666H0.242475V7.51956H0.695374ZM1.76102 8.60652V8.15362H1.30812V8.60652H1.76102ZM16.0249 8.60652H16.4778V8.15362H16.0249V8.60652ZM8.8931 25.5876C4.63147 25.5876 1.14827 22.0475 1.14827 17.6785H0.242475C0.242475 22.5307 4.11435 26.4934 8.8931 26.4934V25.5876ZM16.6377 17.6785C16.6377 22.0478 13.1545 25.5876 8.8931 25.5876V26.4934C13.6716 26.4934 17.5435 22.531 17.5435 17.6785H16.6377ZM16.6377 7.51956V17.6785H17.5435V7.51956H16.6377ZM0.695374 7.97246H17.0906V7.06666H0.695374V7.97246ZM1.14827 17.6785V7.51956H0.242475V17.6785H1.14827ZM1.30812 8.60652V17.6785H2.21392V8.60652H1.30812ZM16.0249 8.15362H1.76102V9.05942H16.0249V8.15362ZM16.4778 17.6785V8.60652H15.572V17.6785H16.4778ZM8.89311 25.4064C13.0845 25.4064 16.4778 21.9315 16.4778 17.6785H15.572C15.572 21.4484 12.5673 24.5006 8.89311 24.5006V25.4064ZM1.30812 17.6785C1.30812 21.9318 4.7018 25.4064 8.89311 25.4064V24.5006C5.2189 24.5006 2.21392 21.4486 2.21392 17.6785H1.30812Z" fill="#F76B40"/>
</svg>
