<svg width="16" height="22" viewBox="0 0 16 22" fill="none" xmlns="http://www.w3.org/2000/svg">
<path fill-rule="evenodd" clip-rule="evenodd" d="M15.3992 20.0598C15.391 20.0798 15.3828 20.0931 15.3746 20.1065C15.3664 20.1131 15.35 20.1265 15.3418 20.1398C15.3336 20.1398 15.3336 20.1465 15.3336 20.1465L13.8506 21.6813C13.7605 21.7814 13.613 21.8348 13.4655 21.8348H2.55974C2.41225 21.8348 2.26477 21.7747 2.17464 21.6813L0.691586 20.1465C0.683392 20.1465 0.683392 20.1398 0.683392 20.1398C0.667005 20.1332 0.658811 20.1198 0.650617 20.1065L0.642424 20.0998C0.638327 20.0931 0.63423 20.0848 0.630133 20.0765C0.626036 20.0681 0.621939 20.0598 0.617843 20.0531V20.0464C0.613746 20.0397 0.611697 20.0331 0.609649 20.0264C0.607601 20.0197 0.605552 20.0131 0.601455 20.0064V19.993C0.601455 19.9864 0.599407 19.978 0.597359 19.9697C0.59531 19.9613 0.593262 19.953 0.593262 19.9463V19.9063V12.9131V2.57678V2.53674C0.593262 2.5234 0.593262 2.50338 0.601455 2.49003V2.47669C0.601455 2.46334 0.609649 2.45 0.617843 2.43665V2.42998C0.626036 2.40996 0.63423 2.39661 0.642424 2.38327L0.650617 2.3766C0.658811 2.36992 0.675198 2.35658 0.683392 2.34323C0.691586 2.34323 0.691586 2.33656 0.691586 2.33656L2.17464 0.801792C2.26477 0.701699 2.41225 0.648315 2.55974 0.648315H13.4573C13.6048 0.648315 13.7523 0.708371 13.8424 0.801792L15.3254 2.33656C15.3336 2.33656 15.3336 2.34323 15.3336 2.34323C15.35 2.3499 15.3582 2.36325 15.3664 2.3766L15.3746 2.38327C15.3787 2.38994 15.3828 2.39828 15.3869 2.40663C15.391 2.41497 15.3951 2.42331 15.3992 2.42998V2.43665C15.4033 2.44332 15.4053 2.45 15.4074 2.45667C15.4094 2.46334 15.4115 2.47002 15.4156 2.47669V2.49003C15.4156 2.49671 15.4176 2.50505 15.4197 2.51339C15.4217 2.52173 15.4238 2.53007 15.4238 2.53674V2.57678V19.913V19.953C15.4238 19.9663 15.4238 19.9864 15.4156 19.9997V20.0131C15.4156 20.0264 15.4074 20.0397 15.3992 20.0531V20.0598ZM2.994 8.3355C2.28935 8.52901 1.78134 8.84264 1.56011 9.00279H1.55192V12.7997C1.74857 13.0265 2.33851 13.6271 3.23162 14.1609C4.69009 15.0284 6.26327 15.3153 7.88561 15.0084C9.94895 14.6216 10.8423 13.9017 11.6284 13.2681L11.6301 13.2668C12.3675 12.6662 13.0722 12.1057 14.4487 11.9789V11.2849C13.8506 11.4985 13.3344 11.5919 12.8592 11.5919C11.6793 11.5919 10.7206 11.018 9.38505 10.2039L9.29738 10.1506L9.29736 10.1506C8.70431 9.78978 8.03302 9.3814 7.20554 8.94273C5.75526 8.16868 4.33776 7.96849 2.994 8.3355ZM14.4569 10.3974C12.6461 11.1715 11.9251 10.7377 9.97499 9.55663L9.7705 9.43314L9.77047 9.43313C9.19163 9.0833 8.54417 8.69201 7.74632 8.26876C5.60778 7.13437 3.81337 7.26116 2.68264 7.57478C2.24019 7.69489 1.86328 7.85504 1.56011 8.00852V2.97048H14.4569V10.3974ZM2.63348 14.7815C2.20741 14.5279 1.85509 14.261 1.56011 14.0208V19.5059H14.4569V12.7796C13.4974 12.8922 12.9978 13.294 12.3496 13.8153L12.3348 13.8273C11.499 14.5012 10.4502 15.342 8.12323 15.7824C7.63161 15.8759 7.14818 15.9226 6.66476 15.9226C5.25545 15.9226 3.88711 15.5355 2.63348 14.7815ZM2.79735 1.44239H13.2197L13.9325 2.17641H2.08451L2.79735 1.44239ZM2.79735 21.0474H13.2197L13.9325 20.3133H2.08451L2.79735 21.0474Z" fill="#C6BFD2"/>
<path d="M15.3746 20.1065L15.4415 20.1886L15.4555 20.1773L15.4649 20.1619L15.3746 20.1065ZM15.3992 20.0598L15.4972 20.0999L15.5051 20.0806V20.0598H15.3992ZM15.3418 20.1398V20.2458H15.4011L15.4321 20.1953L15.3418 20.1398ZM15.3336 20.1465L15.4098 20.2201L15.4396 20.1893L15.4396 20.1465L15.3336 20.1465ZM13.8506 21.6813L13.7744 21.6076L13.7719 21.6104L13.8506 21.6813ZM2.17464 21.6813L2.25087 21.6077L2.25081 21.6077L2.17464 21.6813ZM0.691586 20.1465L0.767763 20.0729L0.736531 20.0406H0.691586V20.1465ZM0.683392 20.1398H0.789324V20.0686L0.723337 20.0417L0.683392 20.1398ZM0.650617 20.1065L0.740893 20.0511L0.73147 20.0357L0.717505 20.0243L0.650617 20.1065ZM0.642424 20.0998L0.552151 20.1552L0.561573 20.1706L0.575536 20.1819L0.642424 20.0998ZM0.630133 20.0765L0.535047 20.1231L0.535051 20.1232L0.630133 20.0765ZM0.617843 20.0531H0.51191V20.083L0.527564 20.1085L0.617843 20.0531ZM0.617843 20.0464H0.723775V20.0165L0.708122 19.991L0.617843 20.0464ZM0.601455 20.0064H0.495523V20.0363L0.511176 20.0618L0.601455 20.0064ZM0.601455 2.49003L0.691731 2.54546L0.707388 2.51996V2.49003H0.601455ZM0.617843 2.43665L0.708118 2.49208L0.723775 2.46658V2.43665H0.617843ZM0.617843 2.42998L0.519805 2.38985L0.51191 2.40914V2.42998H0.617843ZM0.642424 2.38327L0.575529 2.30113L0.561568 2.3125L0.552148 2.32784L0.642424 2.38327ZM0.650617 2.3766L0.583724 2.29446L0.583723 2.29446L0.650617 2.3766ZM0.683392 2.34323V2.2373H0.624125L0.593116 2.28781L0.683392 2.34323ZM0.691586 2.33656L0.615408 2.26295L0.585653 2.29374V2.33656H0.691586ZM2.17464 0.801792L2.25086 0.875449L2.25336 0.872677L2.17464 0.801792ZM13.8424 0.801792L13.7662 0.875343L13.7662 0.875403L13.8424 0.801792ZM15.3254 2.33656L15.2493 2.41017L15.2805 2.44249H15.3254V2.33656ZM15.3336 2.34323L15.2277 2.34322L15.2277 2.41447L15.2937 2.44134L15.3336 2.34323ZM15.3664 2.3766L15.2761 2.43202L15.2856 2.44737L15.2995 2.45874L15.3664 2.3766ZM15.3746 2.38327L15.4649 2.32784L15.4555 2.3125L15.4415 2.30113L15.3746 2.38327ZM15.3869 2.40663L15.2918 2.45332L15.2918 2.45333L15.3869 2.40663ZM15.3992 2.42998H15.5051V2.40006L15.4895 2.37456L15.3992 2.42998ZM15.3992 2.43665H15.2933V2.46658L15.3089 2.49208L15.3992 2.43665ZM15.4074 2.45667L15.3061 2.48776V2.48776L15.4074 2.45667ZM15.4156 2.47669H15.5215V2.44676L15.5059 2.42126L15.4156 2.47669ZM15.4156 19.9997L15.3253 19.9443L15.3096 19.9698V19.9997H15.4156ZM15.3992 20.0531L15.3089 19.9977L15.2933 20.0232V20.0531H15.3992ZM1.56011 9.00279V9.10872H1.59443L1.62223 9.0886L1.56011 9.00279ZM2.994 8.3355L2.96609 8.23331L2.96595 8.23335L2.994 8.3355ZM1.55192 9.00279V8.89686H1.44599V9.00279H1.55192ZM1.55192 12.7997H1.44599V12.8392L1.47187 12.869L1.55192 12.7997ZM3.23162 14.1609L3.17727 14.2519L3.17747 14.252L3.23162 14.1609ZM7.88561 15.0084L7.8661 14.9043L7.86592 14.9043L7.88561 15.0084ZM11.6284 13.2681L11.562 13.1856L11.562 13.1856L11.6284 13.2681ZM11.6301 13.2668L11.6966 13.3493L11.697 13.3489L11.6301 13.2668ZM14.4487 11.9789L14.4584 12.0844L14.5547 12.0755V11.9789H14.4487ZM14.4487 11.2849H14.5547V11.1346L14.4131 11.1852L14.4487 11.2849ZM9.38505 10.2039L9.44018 10.1135L9.4401 10.1134L9.38505 10.2039ZM9.29738 10.1506L9.24123 10.2404L9.24233 10.2411L9.29738 10.1506ZM9.29736 10.1506L9.35351 10.0607L9.35241 10.0601L9.29736 10.1506ZM7.20554 8.94273L7.15566 9.03619L7.15592 9.03633L7.20554 8.94273ZM9.97499 9.55663L10.0299 9.46602L10.0298 9.46595L9.97499 9.55663ZM14.4569 10.3974L14.4986 10.4948L14.5629 10.4673V10.3974H14.4569ZM9.7705 9.43314L9.82526 9.34246L9.825 9.34231L9.7705 9.43314ZM9.77047 9.43313L9.71568 9.52379L9.71597 9.52396L9.77047 9.43313ZM7.74632 8.26876L7.79596 8.17518L7.79596 8.17518L7.74632 8.26876ZM2.68264 7.57478L2.7104 7.67702L2.71096 7.67686L2.68264 7.57478ZM1.56011 8.00852H1.45418V8.18088L1.60796 8.10303L1.56011 8.00852ZM1.56011 2.97048V2.86455H1.45418V2.97048H1.56011ZM14.4569 2.97048H14.5629V2.86455H14.4569V2.97048ZM1.56011 14.0208L1.62701 13.9387L1.45418 13.7979V14.0208H1.56011ZM2.63348 14.7815L2.68808 14.6907L2.68766 14.6905L2.63348 14.7815ZM1.56011 19.5059H1.45418V19.6119H1.56011V19.5059ZM14.4569 19.5059V19.6119H14.5629V19.5059H14.4569ZM14.4569 12.7796H14.5629V12.6606L14.4446 12.6744L14.4569 12.7796ZM12.3496 13.8153L12.416 13.8979L12.416 13.8979L12.3496 13.8153ZM12.3348 13.8273L12.2684 13.7447L12.2683 13.7448L12.3348 13.8273ZM8.12323 15.7824L8.10353 15.6784L8.10345 15.6784L8.12323 15.7824ZM13.2197 1.44239L13.2957 1.36859L13.2645 1.33646H13.2197V1.44239ZM2.79735 1.44239V1.33646H2.75256L2.72136 1.36859L2.79735 1.44239ZM13.9325 2.17641V2.28234H14.1831L14.0085 2.10261L13.9325 2.17641ZM2.08451 2.17641L2.00851 2.10261L1.83396 2.28234H2.08451V2.17641ZM13.2197 21.0474V21.1533H13.2645L13.2957 21.1212L13.2197 21.0474ZM2.79735 21.0474L2.72136 21.1212L2.75256 21.1533H2.79735V21.0474ZM13.9325 20.3133L14.0085 20.3871L14.1831 20.2074H13.9325V20.3133ZM2.08451 20.3133V20.2074H1.83396L2.00851 20.3871L2.08451 20.3133ZM15.4649 20.1619C15.4734 20.148 15.4856 20.1284 15.4972 20.0999L15.3011 20.0196C15.2964 20.0312 15.2922 20.0383 15.2843 20.0511L15.4649 20.1619ZM15.4321 20.1953C15.4311 20.1969 15.4303 20.198 15.4298 20.1986C15.4296 20.199 15.4294 20.1992 15.4293 20.1993C15.4292 20.1995 15.4291 20.1995 15.4291 20.1995C15.4291 20.1995 15.4292 20.1995 15.4293 20.1994C15.4294 20.1993 15.4295 20.1991 15.4297 20.1989C15.4301 20.1985 15.4306 20.1981 15.4312 20.1975C15.4341 20.1947 15.4373 20.192 15.4415 20.1886L15.3077 20.0243C15.3032 20.028 15.271 20.0527 15.2516 20.0844L15.4321 20.1953ZM15.3336 20.1465C15.4396 20.1465 15.4396 20.1466 15.4396 20.1467C15.4396 20.1467 15.4396 20.1467 15.4396 20.1468C15.4396 20.1469 15.4396 20.147 15.4396 20.147C15.4396 20.1472 15.4396 20.1474 15.4396 20.1476C15.4396 20.1479 15.4396 20.1483 15.4396 20.1486C15.4395 20.1493 15.4395 20.15 15.4395 20.1508C15.4394 20.1523 15.4393 20.1538 15.4392 20.1555C15.4389 20.1588 15.4384 20.1626 15.4375 20.1667C15.4359 20.1747 15.4325 20.1863 15.4249 20.1986C15.4169 20.2117 15.4047 20.2247 15.3876 20.234C15.3708 20.2431 15.3544 20.2458 15.3418 20.2458V20.0339C15.303 20.0339 15.2657 20.053 15.2444 20.0878C15.2358 20.1018 15.2319 20.115 15.23 20.1242C15.229 20.129 15.2284 20.1333 15.2281 20.137C15.228 20.1388 15.2279 20.1405 15.2278 20.1421C15.2278 20.1429 15.2277 20.1437 15.2277 20.1444C15.2277 20.1448 15.2277 20.1451 15.2277 20.1455C15.2277 20.1456 15.2277 20.1458 15.2277 20.146C15.2277 20.1461 15.2277 20.1462 15.2277 20.1462C15.2277 20.1463 15.2277 20.1464 15.2277 20.1464C15.2277 20.1464 15.2277 20.1465 15.3336 20.1465ZM13.9268 21.7549L15.4098 20.2201L15.2575 20.0729L13.7744 21.6077L13.9268 21.7549ZM13.4655 21.9407C13.6351 21.9407 13.8144 21.8798 13.9293 21.7522L13.7719 21.6104C13.7066 21.6829 13.5908 21.7288 13.4655 21.7288V21.9407ZM2.55974 21.9407H13.4655V21.7288H2.55974V21.9407ZM2.0984 21.7548C2.21061 21.8711 2.3867 21.9407 2.55974 21.9407V21.7288C2.43781 21.7288 2.31892 21.6783 2.25087 21.6077L2.0984 21.7548ZM0.615408 20.2201L2.09846 21.7549L2.25081 21.6077L0.767763 20.0729L0.615408 20.2201ZM0.683392 20.1398C0.57746 20.1398 0.57746 20.1399 0.57746 20.14C0.57746 20.14 0.57746 20.1401 0.57746 20.1401C0.57746 20.1402 0.577461 20.1403 0.577461 20.1404C0.577462 20.1405 0.577463 20.1407 0.577465 20.1409C0.577468 20.1412 0.577473 20.1416 0.577481 20.142C0.577495 20.1427 0.577518 20.1435 0.57755 20.1442C0.577615 20.1458 0.57772 20.1475 0.577881 20.1494C0.578199 20.153 0.578757 20.1573 0.579738 20.1621C0.581627 20.1714 0.585535 20.1846 0.594137 20.1986C0.615488 20.2334 0.652734 20.2524 0.691586 20.2524V20.0406C0.704152 20.0406 0.720564 20.0432 0.737399 20.0524C0.75445 20.0616 0.766684 20.0747 0.774695 20.0878C0.782273 20.1001 0.785669 20.1117 0.787302 20.1196C0.788155 20.1238 0.788648 20.1276 0.788935 20.1309C0.78908 20.1325 0.789177 20.1341 0.789237 20.1356C0.789268 20.1363 0.78929 20.1371 0.789304 20.1378C0.789311 20.1381 0.789316 20.1385 0.789319 20.1388C0.789321 20.139 0.789322 20.1392 0.789323 20.1393C0.789323 20.1394 0.789324 20.1395 0.789324 20.1396C0.789324 20.1396 0.789324 20.1397 0.789324 20.1397C0.789324 20.1398 0.789324 20.1398 0.683392 20.1398ZM0.560342 20.1619C0.566348 20.1717 0.590503 20.2164 0.643447 20.238L0.723337 20.0417C0.727991 20.0436 0.732286 20.0461 0.736026 20.0489C0.739671 20.0516 0.742159 20.0542 0.743571 20.0558C0.744895 20.0573 0.745342 20.0581 0.744759 20.0572C0.744034 20.0561 0.74314 20.0547 0.740893 20.0511L0.560342 20.1619ZM0.575536 20.1819L0.583729 20.1886L0.717505 20.0243L0.709312 20.0177L0.575536 20.1819ZM0.535051 20.1232C0.538503 20.1302 0.544909 20.1434 0.552151 20.1552L0.732696 20.0444C0.732696 20.0444 0.732638 20.0443 0.732521 20.0441C0.732404 20.0439 0.732242 20.0436 0.732034 20.0432C0.731609 20.0424 0.731065 20.0414 0.730377 20.0401C0.728919 20.0373 0.727358 20.0341 0.725215 20.0298L0.535051 20.1232ZM0.527564 20.1085C0.527563 20.1085 0.527578 20.1085 0.527608 20.1086C0.527639 20.1086 0.527683 20.1087 0.527741 20.1088C0.527858 20.109 0.52802 20.1093 0.528228 20.1097C0.528655 20.1104 0.529199 20.1115 0.529887 20.1128C0.531345 20.1156 0.532906 20.1188 0.535047 20.1231L0.725219 20.0298C0.721762 20.0227 0.715361 20.0095 0.708122 19.9977L0.527564 20.1085ZM0.51191 20.0464V20.0531H0.723775V20.0464H0.51191ZM0.50838 20.0575C0.510089 20.0631 0.515468 20.0821 0.527563 20.1018L0.708122 19.991C0.710262 19.9945 0.711434 19.9973 0.711879 19.9985C0.712109 19.9991 0.712101 19.9992 0.710918 19.9953L0.50838 20.0575ZM0.511176 20.0618C0.509036 20.0583 0.507864 20.0555 0.507419 20.0543C0.507189 20.0537 0.507197 20.0536 0.50838 20.0575L0.710918 19.9953C0.709209 19.9898 0.70383 19.9707 0.691735 19.951L0.511176 20.0618ZM0.495523 19.993V20.0064H0.707388V19.993H0.495523ZM0.494483 19.9949C0.49564 19.9997 0.495999 20.0012 0.49618 20.0022C0.496228 20.0024 0.496095 20.0018 0.495939 20.0005C0.495789 19.9992 0.495523 19.9966 0.495523 19.993H0.707388C0.707388 19.9707 0.701194 19.9483 0.700234 19.9444L0.494483 19.9949ZM0.48733 19.9463C0.48733 19.9687 0.493523 19.991 0.494483 19.9949L0.700234 19.9444C0.699077 19.9397 0.698718 19.9382 0.698538 19.9372C0.698489 19.937 0.698623 19.9376 0.698778 19.9389C0.698928 19.9401 0.699194 19.9427 0.699194 19.9463H0.48733ZM0.48733 19.9063V19.9463H0.699194V19.9063H0.48733ZM0.48733 12.9131V19.9063H0.699194V12.9131H0.48733ZM0.48733 2.57678V12.9131H0.699194V2.57678H0.48733ZM0.48733 2.53674V2.57678H0.699194V2.53674H0.48733ZM0.511179 2.43461C0.495597 2.45999 0.490963 2.48566 0.489143 2.50048C0.487214 2.5162 0.48733 2.53079 0.48733 2.53674H0.699194C0.699194 2.53324 0.699202 2.53112 0.699267 2.52911C0.699296 2.5282 0.699333 2.52751 0.699368 2.52701C0.699403 2.52651 0.69943 2.52628 0.699428 2.5263C0.699427 2.52631 0.699382 2.52669 0.69925 2.52736C0.699119 2.52804 0.698873 2.52917 0.698436 2.53067C0.697622 2.53347 0.695758 2.5389 0.691731 2.54546L0.511179 2.43461ZM0.495523 2.47669V2.49003H0.707388V2.47669H0.495523ZM0.527567 2.38123C0.524183 2.38674 0.51655 2.39891 0.510355 2.41236C0.504005 2.42615 0.495523 2.44869 0.495523 2.47669H0.707388C0.707388 2.48423 0.706229 2.49022 0.70517 2.49416C0.704136 2.49801 0.703064 2.5004 0.702798 2.50098C0.702533 2.50155 0.70265 2.50122 0.703636 2.49951C0.704679 2.49769 0.705929 2.49564 0.708118 2.49208L0.527567 2.38123ZM0.51191 2.42998V2.43665H0.723775V2.42998H0.51191ZM0.552148 2.32784C0.543593 2.34178 0.531481 2.36132 0.519805 2.38985L0.715881 2.47011C0.720592 2.4586 0.724867 2.45145 0.732699 2.43869L0.552148 2.32784ZM0.583723 2.29446L0.575529 2.30113L0.709318 2.46541L0.717512 2.45873L0.583723 2.29446ZM0.593116 2.28781C0.594122 2.28617 0.594937 2.28504 0.59539 2.28444C0.59563 2.28412 0.595812 2.28389 0.595926 2.28375C0.59604 2.28361 0.596102 2.28354 0.596102 2.28354C0.596104 2.28354 0.596058 2.28359 0.595961 2.2837C0.595863 2.2838 0.595725 2.28395 0.595542 2.28414C0.595169 2.28452 0.594672 2.28502 0.594039 2.28562C0.591164 2.28835 0.587901 2.29105 0.583724 2.29446L0.717511 2.45873C0.721978 2.4551 0.754217 2.43034 0.773668 2.39866L0.593116 2.28781ZM0.691586 2.33656C0.585653 2.33656 0.585653 2.33649 0.585653 2.33643C0.585653 2.33641 0.585654 2.33635 0.585654 2.3363C0.585654 2.33622 0.585654 2.33613 0.585655 2.33605C0.585655 2.33588 0.585657 2.3357 0.585658 2.33553C0.585662 2.33518 0.585667 2.33483 0.585674 2.33448C0.585688 2.33377 0.585709 2.33304 0.58574 2.3323C0.585801 2.33082 0.585897 2.32924 0.586042 2.32759C0.586329 2.32432 0.586823 2.32053 0.587676 2.31636C0.589309 2.30838 0.592706 2.29682 0.600285 2.28447C0.608298 2.27142 0.620532 2.25835 0.637584 2.24909C0.654417 2.23995 0.670828 2.2373 0.683392 2.2373V2.44916C0.722238 2.44916 0.759484 2.4301 0.780837 2.39532C0.789441 2.3813 0.793349 2.36807 0.795239 2.35884C0.79622 2.35404 0.796778 2.34973 0.797097 2.3461C0.797258 2.34426 0.797362 2.34255 0.797427 2.34096C0.79746 2.34017 0.797482 2.33941 0.797497 2.33867C0.797504 2.33831 0.797509 2.33795 0.797513 2.33759C0.797514 2.33742 0.797516 2.33724 0.797516 2.33707C0.797517 2.33698 0.797517 2.3369 0.797517 2.33681C0.797518 2.33677 0.797518 2.33671 0.797518 2.33669C0.797518 2.33662 0.797518 2.33656 0.691586 2.33656ZM2.09846 0.728181L0.615408 2.26295L0.767763 2.41017L2.25081 0.875403L2.09846 0.728181ZM2.55974 0.542383C2.39012 0.542383 2.21087 0.603249 2.09592 0.730907L2.25336 0.872677C2.31867 0.800148 2.43439 0.754248 2.55974 0.754248V0.542383ZM13.4573 0.542383H2.55974V0.754248H13.4573V0.542383ZM13.9186 0.728241C13.8064 0.611934 13.6303 0.542383 13.4573 0.542383V0.754248C13.5792 0.754248 13.6981 0.804809 13.7662 0.875343L13.9186 0.728241ZM15.4016 2.26295L13.9186 0.728181L13.7662 0.875403L15.2493 2.41017L15.4016 2.26295ZM15.3336 2.34323C15.4396 2.34325 15.4396 2.34318 15.4396 2.34312C15.4396 2.3431 15.4396 2.34303 15.4396 2.34299C15.4396 2.34291 15.4396 2.34282 15.4396 2.34273C15.4396 2.34256 15.4396 2.34239 15.4396 2.34221C15.4396 2.34186 15.4396 2.3415 15.4396 2.34113C15.4395 2.3404 15.4395 2.33963 15.4395 2.33884C15.4394 2.33726 15.4393 2.33554 15.4392 2.3337C15.4388 2.33007 15.4383 2.32576 15.4373 2.32096C15.4354 2.31173 15.4315 2.29849 15.4229 2.28448C15.4015 2.24969 15.3643 2.23063 15.3254 2.23063V2.44249C15.3129 2.44249 15.2965 2.43984 15.2796 2.4307C15.2626 2.42144 15.2503 2.40836 15.2423 2.39531C15.2348 2.38296 15.2314 2.37139 15.2297 2.36341C15.2289 2.35924 15.2284 2.35545 15.2281 2.35218C15.228 2.35053 15.2279 2.34896 15.2278 2.34747C15.2278 2.34673 15.2277 2.346 15.2277 2.34529C15.2277 2.34494 15.2277 2.34459 15.2277 2.34424C15.2277 2.34407 15.2277 2.3439 15.2277 2.34373C15.2277 2.34364 15.2277 2.34356 15.2277 2.34347C15.2277 2.34343 15.2277 2.34336 15.2277 2.34334C15.2277 2.34328 15.2277 2.34322 15.3336 2.34323ZM15.4567 2.32117C15.4507 2.31139 15.4265 2.26668 15.3736 2.24512L15.2937 2.44134C15.289 2.43945 15.2847 2.43696 15.281 2.43416C15.2774 2.43143 15.2749 2.42887 15.2735 2.42726C15.2721 2.42575 15.2717 2.42499 15.2723 2.42586C15.273 2.42693 15.2739 2.42836 15.2761 2.43202L15.4567 2.32117ZM15.4415 2.30113L15.4333 2.29446L15.2995 2.45874L15.3077 2.46541L15.4415 2.30113ZM15.482 2.35993C15.4785 2.3529 15.4721 2.33964 15.4649 2.32784L15.2843 2.4387C15.2843 2.4387 15.2844 2.43879 15.2845 2.43899C15.2846 2.4392 15.2848 2.43948 15.285 2.43985C15.2854 2.44062 15.286 2.44164 15.2867 2.44297C15.2881 2.44579 15.2897 2.44896 15.2918 2.45332L15.482 2.35993ZM15.4895 2.37456C15.4895 2.37456 15.4895 2.37453 15.4894 2.37448C15.4894 2.37443 15.4893 2.37436 15.4893 2.37426C15.4892 2.37406 15.489 2.37377 15.4888 2.3734C15.4884 2.37263 15.4878 2.37161 15.4871 2.37028C15.4857 2.36746 15.4841 2.36429 15.482 2.35993L15.2918 2.45333C15.2953 2.46036 15.3017 2.47361 15.3089 2.4854L15.4895 2.37456ZM15.5051 2.43665V2.42998H15.2933V2.43665H15.5051ZM15.5086 2.42558C15.5069 2.42002 15.5016 2.40093 15.4895 2.38122L15.3089 2.49208C15.3068 2.48859 15.3056 2.48577 15.3052 2.48461C15.3049 2.48401 15.3049 2.4839 15.3061 2.48776L15.5086 2.42558ZM15.5059 2.42126C15.508 2.42475 15.5092 2.42757 15.5096 2.42873C15.5098 2.42933 15.5098 2.42944 15.5086 2.42558L15.3061 2.48776C15.3078 2.49332 15.3132 2.51241 15.3253 2.53212L15.5059 2.42126ZM15.5215 2.49003V2.47669H15.3096V2.49003H15.5215ZM15.5225 2.48812C15.5214 2.48341 15.521 2.48185 15.5209 2.48092C15.5208 2.48067 15.5209 2.48131 15.5211 2.48259C15.5212 2.48383 15.5215 2.48644 15.5215 2.49003H15.3096C15.3096 2.51236 15.3158 2.53475 15.3168 2.53865L15.5225 2.48812ZM15.5297 2.53674C15.5297 2.51442 15.5235 2.49203 15.5225 2.48812L15.3168 2.53865C15.318 2.54337 15.3183 2.54492 15.3185 2.54586C15.3185 2.54611 15.3184 2.54547 15.3183 2.54419C15.3181 2.54295 15.3178 2.54034 15.3178 2.53674H15.5297ZM15.5297 2.57678V2.53674H15.3178V2.57678H15.5297ZM15.5297 19.913V2.57678H15.3178V19.913H15.5297ZM15.5297 19.953V19.913H15.3178V19.953H15.5297ZM15.5059 20.0551C15.5214 20.0298 15.5261 20.0041 15.5279 19.9893C15.5298 19.9736 15.5297 19.959 15.5297 19.953H15.3178C15.3178 19.9565 15.3178 19.9586 15.3178 19.9606C15.3177 19.9615 15.3177 19.9622 15.3177 19.9627C15.3176 19.9632 15.3176 19.9635 15.3176 19.9634C15.3176 19.9634 15.3176 19.9631 15.3178 19.9624C15.3179 19.9617 15.3182 19.9606 15.3186 19.9591C15.3194 19.9563 15.3213 19.9508 15.3253 19.9443L15.5059 20.0551ZM15.5215 20.0131V19.9997H15.3096V20.0131H15.5215ZM15.4895 20.1085C15.4928 20.103 15.5005 20.0908 15.5067 20.0774C15.513 20.0636 15.5215 20.0411 15.5215 20.0131H15.3096C15.3096 20.0055 15.3108 19.9995 15.3119 19.9956C15.3129 19.9917 15.314 19.9893 15.3142 19.9888C15.3145 19.9882 15.3144 19.9885 15.3134 19.9902C15.3124 19.9921 15.3111 19.9941 15.3089 19.9977L15.4895 20.1085ZM15.5051 20.0598V20.0531H15.2933V20.0598H15.5051ZM1.62223 9.0886C1.83569 8.93407 2.33231 8.62707 3.02205 8.43765L2.96595 8.23335C2.24638 8.43096 1.727 8.7512 1.498 8.91698L1.62223 9.0886ZM1.55192 9.10872H1.56011V8.89686H1.55192V9.10872ZM1.65785 12.7997V9.00279H1.44599V12.7997H1.65785ZM3.28597 14.07C2.40428 13.543 1.82273 12.9504 1.63197 12.7303L1.47187 12.869C1.67441 13.1027 2.27274 13.7112 3.17727 14.2519L3.28597 14.07ZM7.86592 14.9043C6.26975 15.2063 4.72274 14.9246 3.28577 14.0699L3.17747 14.252C4.65743 15.1322 6.25678 15.4244 7.9053 15.1125L7.86592 14.9043ZM11.562 13.1856C10.7823 13.8139 9.90511 14.5221 7.8661 14.9043L7.90513 15.1125C9.9928 14.7212 10.9022 13.9895 11.6949 13.3506L11.562 13.1856ZM11.5636 13.1843L11.562 13.1856L11.6949 13.3506L11.6966 13.3493L11.5636 13.1843ZM14.439 11.8734C13.0297 12.0032 12.3043 12.5811 11.5632 13.1846L11.697 13.3489C12.4307 12.7514 13.1147 12.2082 14.4584 12.0844L14.439 11.8734ZM14.3428 11.2849V11.9789H14.5547V11.2849H14.3428ZM12.8592 11.6978C13.3488 11.6978 13.8771 11.6015 14.4843 11.3847L14.4131 11.1852C13.8241 11.3954 13.32 11.4859 12.8592 11.4859V11.6978ZM9.32991 10.2944C10.6597 11.1049 11.6442 11.6978 12.8592 11.6978V11.4859C11.7143 11.4859 10.7815 10.9311 9.44018 10.1135L9.32991 10.2944ZM9.24233 10.2411L9.33 10.2944L9.4401 10.1134L9.35243 10.0601L9.24233 10.2411ZM9.24121 10.2404L9.24124 10.2404L9.35352 10.0608L9.3535 10.0607L9.24121 10.2404ZM7.15592 9.03633C7.98034 9.47337 8.64924 9.88028 9.2423 10.2411L9.35241 10.0601C8.75937 9.69928 8.08569 9.28943 7.25516 8.84914L7.15592 9.03633ZM3.02191 8.43769C4.33526 8.07899 5.72498 8.27259 7.15566 9.03619L7.25542 8.84928C5.78554 8.06476 4.34026 7.85799 2.96609 8.23331L3.02191 8.43769ZM9.92012 9.64724C10.8898 10.2346 11.5732 10.649 12.243 10.8131C12.9233 10.9798 13.5807 10.8872 14.4986 10.4948L14.4153 10.3C13.5223 10.6817 12.9138 10.7593 12.2934 10.6073C11.6624 10.4527 11.0103 10.0598 10.0299 9.46602L9.92012 9.64724ZM9.71574 9.52382L9.92023 9.64731L10.0298 9.46595L9.82526 9.34246L9.71574 9.52382ZM9.71597 9.52396L9.71599 9.52398L9.825 9.34231L9.82497 9.34229L9.71597 9.52396ZM7.69668 8.36234C8.49164 8.78405 9.13683 9.17396 9.71568 9.52379L9.82526 9.34246C9.24643 8.99264 8.59671 8.59996 7.79596 8.17518L7.69668 8.36234ZM2.71096 7.67686C3.81951 7.36938 5.58546 7.24245 7.69668 8.36234L7.79596 8.17518C5.63009 7.0263 3.80723 7.15293 2.65433 7.4727L2.71096 7.67686ZM1.60796 8.10303C1.90607 7.95211 2.27622 7.79488 2.7104 7.67701L2.65489 7.47255C2.20416 7.59491 1.82049 7.75797 1.51227 7.91401L1.60796 8.10303ZM1.45418 2.97048V8.00852H1.66605V2.97048H1.45418ZM14.4569 2.86455H1.56011V3.07642H14.4569V2.86455ZM14.5629 10.3974V2.97048H14.351V10.3974H14.5629ZM1.49322 14.1029C1.79047 14.345 2.14721 14.6154 2.57931 14.8725L2.68766 14.6905C2.26762 14.4405 1.9197 14.177 1.62701 13.9387L1.49322 14.1029ZM1.66605 19.5059V14.0208H1.45418V19.5059H1.66605ZM14.4569 19.4H1.56011V19.6119H14.4569V19.4ZM14.351 12.7796V19.5059H14.5629V12.7796H14.351ZM12.416 13.8979C13.0632 13.3774 13.5422 12.9936 14.4693 12.8848L14.4446 12.6744C13.4526 12.7908 12.9325 13.2106 12.2832 13.7328L12.416 13.8979ZM12.4012 13.9098L12.416 13.8979L12.2832 13.7328L12.2684 13.7447L12.4012 13.9098ZM8.14293 15.8865C10.4941 15.4415 11.5589 14.589 12.4013 13.9097L12.2683 13.7448C11.4391 14.4135 10.4063 15.2425 8.10353 15.6784L8.14293 15.8865ZM6.66476 16.0285C7.1551 16.0285 7.64515 15.9811 8.143 15.8865L8.10345 15.6784C7.61807 15.7706 7.14126 15.8166 6.66476 15.8166V16.0285ZM2.57888 14.8723C3.84836 15.6359 5.23548 16.0285 6.66476 16.0285V15.8166C5.27542 15.8166 3.92586 15.4352 2.68808 14.6907L2.57888 14.8723ZM13.2197 1.33646H2.79735V1.54832H13.2197V1.33646ZM14.0085 2.10261L13.2957 1.36859L13.1437 1.51619L13.8565 2.25021L14.0085 2.10261ZM2.08451 2.28234H13.9325V2.07048H2.08451V2.28234ZM2.72136 1.36859L2.00851 2.10261L2.1605 2.25021L2.87335 1.51619L2.72136 1.36859ZM13.2197 20.9414H2.79735V21.1533H13.2197V20.9414ZM13.8565 20.2395L13.1437 20.9736L13.2957 21.1212L14.0085 20.3871L13.8565 20.2395ZM2.08451 20.4193H13.9325V20.2074H2.08451V20.4193ZM2.87335 20.9736L2.1605 20.2395L2.00851 20.3871L2.72136 21.1212L2.87335 20.9736Z" fill="#C6BFD2"/>
</svg>
