<svg width="60" height="60" viewBox="0 0 60 60" fill="none" xmlns="http://www.w3.org/2000/svg">
<path opacity="0.5" d="M30.0004 40C15.6005 40 13.0496 25.6489 12.5977 14.2662C12.472 11.0999 12.4091 9.51682 13.5984 8.05208C14.7877 6.58734 16.2111 6.34718 19.0579 5.86686C21.8681 5.39272 25.5415 5 30.0004 5C34.4592 5 38.1327 5.39272 40.9428 5.86686C43.7896 6.34718 45.2131 6.58734 46.4024 8.05208C47.5916 9.51682 47.5288 11.0999 47.4031 14.2662C46.9512 25.6489 44.4002 40 30.0004 40Z" fill="#0EAD69"/>
<path d="M44.1009 31.0551L51.1422 27.1431C53.0233 26.0981 53.9638 25.5755 54.4818 24.6952C54.9998 23.8149 54.9998 22.739 54.9998 20.5872L54.9999 20.4058C54.9999 17.7968 55 16.4923 54.2921 15.5102C53.5843 14.5281 52.3467 14.1156 49.8716 13.2905L47.5 12.5L47.4577 12.7116C47.446 13.1848 47.4256 13.7002 47.4031 14.2661C47.1823 19.8271 46.4605 26.0966 44.1009 31.0551Z" fill="#0EAD69"/>
<path d="M12.5977 14.2662C12.8185 19.8274 13.5403 26.0972 15.9002 31.0557L8.85762 27.1431C6.97658 26.0981 6.03604 25.5755 5.51807 24.6952C5.0001 23.8149 5.00007 22.739 5.00001 20.5872L5 20.4058C4.99993 17.7968 4.9999 16.4923 5.70774 15.5102C6.41559 14.5281 7.65316 14.1156 10.1283 13.2905L12.4999 12.5L12.5432 12.7168C12.5549 13.1885 12.5753 13.7022 12.5977 14.2662Z" fill="#0EAD69"/>
<path fill-rule="evenodd" clip-rule="evenodd" d="M13.125 55C13.125 53.9645 13.9645 53.125 15 53.125H45C46.0355 53.125 46.875 53.9645 46.875 55C46.875 56.0355 46.0355 56.875 45 56.875H15C13.9645 56.875 13.125 56.0355 13.125 55Z" fill="#0EAD69"/>
<path opacity="0.5" d="M38.6442 53.125H21.3562L22.0982 48.7504C22.332 47.5819 23.358 46.7407 24.5497 46.7407H35.4507C36.6424 46.7407 37.6684 47.5819 37.9021 48.7504L38.6442 53.125Z" fill="#0EAD69"/>
<path d="M30.0004 40.0004C29.3515 40.0004 28.7267 39.9712 28.125 39.9146V46.7407H31.875V39.9146C31.2736 39.9713 30.649 40.0004 30.0004 40.0004Z" fill="#0EAD69"/>
<path d="M27.8649 15.0563C28.8149 13.3521 29.2899 12.5 30 12.5C30.7101 12.5 31.1851 13.3521 32.1351 15.0563L32.3809 15.4972C32.6509 15.9815 32.7858 16.2236 32.9963 16.3834C33.2068 16.5431 33.4689 16.6024 33.9931 16.721L34.4703 16.829C36.3151 17.2464 37.2375 17.4551 37.4569 18.1608C37.6764 18.8665 37.0476 19.6018 35.7899 21.0724L35.4646 21.4529C35.1072 21.8708 34.9285 22.0798 34.8481 22.3383C34.7677 22.5968 34.7947 22.8756 34.8488 23.4332L34.898 23.9408C35.0881 25.9029 35.1832 26.884 34.6086 27.3202C34.0341 27.7563 33.1705 27.3587 31.4432 26.5634L30.9964 26.3576C30.5056 26.1316 30.2601 26.0186 30 26.0186C29.7399 26.0186 29.4944 26.1316 29.0036 26.3576L28.5568 26.5634C26.8295 27.3587 25.9659 27.7563 25.3914 27.3202C24.8168 26.884 24.9119 25.903 25.102 23.9408L25.1512 23.4332C25.2053 22.8756 25.2323 22.5968 25.1519 22.3383C25.0715 22.0798 24.8928 21.8708 24.5354 21.4529L24.2101 21.0724C22.9524 19.6018 22.3236 18.8665 22.5431 18.1608C22.7625 17.4551 23.6849 17.2464 25.5297 16.829L26.0069 16.721C26.5311 16.6024 26.7932 16.5431 27.0037 16.3834C27.2142 16.2236 27.3491 15.9815 27.6191 15.4972L27.8649 15.0563Z" fill="#0EAD69"/>
</svg>
