<svg width="17" height="21" viewBox="0 0 17 21" fill="none" xmlns="http://www.w3.org/2000/svg">
<path d="M1.46433 18.0952C1.46433 19.3393 2.48218 20.3571 3.72623 20.3571H12.7738C14.0179 20.3571 15.0358 19.3393 15.0358 18.0952V4.52381H1.46433V18.0952ZM5.04945 10.8458C4.83798 10.6344 4.71918 10.3476 4.71918 10.0485C4.71918 9.74946 4.83798 9.46265 5.04945 9.25119C5.26091 9.03973 5.54771 8.92093 5.84677 8.92093C6.14582 8.92093 6.43263 9.03973 6.64409 9.25119L8.25004 10.8458L9.84468 9.25119C10.0561 9.03973 10.343 8.92093 10.642 8.92093C10.9411 8.92093 11.2279 9.03973 11.4393 9.25119C11.6508 9.46265 11.7696 9.74946 11.7696 10.0485C11.7696 10.3476 11.6508 10.6344 11.4393 10.8458L9.84468 12.4405L11.4393 14.0351C11.544 14.1398 11.6271 14.2641 11.6838 14.4009C11.7404 14.5377 11.7696 14.6844 11.7696 14.8324C11.7696 14.9805 11.7404 15.1271 11.6838 15.2639C11.6271 15.4008 11.544 15.5251 11.4393 15.6298C11.3346 15.7345 11.2103 15.8175 11.0735 15.8742C10.9367 15.9309 10.7901 15.96 10.642 15.96C10.4939 15.96 10.3473 15.9309 10.2105 15.8742C10.0737 15.8175 9.94939 15.7345 9.84468 15.6298L8.25004 14.0351L6.6554 15.6298C6.55069 15.7345 6.42639 15.8175 6.28958 15.8742C6.15278 15.9309 6.00615 15.96 5.85808 15.96C5.71 15.96 5.56337 15.9309 5.42657 15.8742C5.28976 15.8175 5.16546 15.7345 5.06076 15.6298C4.95605 15.5251 4.87299 15.4008 4.81633 15.2639C4.75966 15.1271 4.73049 14.9805 4.73049 14.8324C4.73049 14.6844 4.75966 14.5377 4.81633 14.4009C4.87299 14.2641 4.95605 14.1398 5.06076 14.0351L6.6554 12.4405L5.04945 10.8458ZM15.0358 1.13095H12.2084L11.4054 0.327976C11.2018 0.124405 10.9078 0 10.6137 0H5.88635C5.5923 0 5.29825 0.124405 5.09468 0.327976L4.29171 1.13095H1.46433C0.842303 1.13095 0.333374 1.63988 0.333374 2.2619C0.333374 2.88393 0.842303 3.39286 1.46433 3.39286H15.0358C15.6578 3.39286 16.1667 2.88393 16.1667 2.2619C16.1667 1.63988 15.6578 1.13095 15.0358 1.13095Z" fill="#FF6154"/>
</svg>
