<svg width="18" height="21" viewBox="0 0 18 21" fill="none" xmlns="http://www.w3.org/2000/svg">
<path fill-rule="evenodd" clip-rule="evenodd" d="M0.991407 0.96286H16.823C16.9796 0.96286 17.1286 1.02686 17.2343 1.13928C17.3405 1.2517 17.3931 1.40252 17.3794 1.55446L15.7029 20.4055C15.6784 20.6871 15.4368 20.903 15.1466 20.903H2.66727C2.37768 20.903 2.1355 20.6871 2.11094 20.4055L0.434498 1.55446C0.420789 1.40197 0.47391 1.2517 0.57958 1.13928C0.685821 1.02686 0.834901 0.96286 0.991407 0.96286ZM2.90946 16.7741H14.9044L15.6607 8.26185C14.7662 8.76217 13.6084 9.17791 12.3632 9.17791C11.0957 9.17791 9.74545 8.74937 8.51168 7.54725C5.89506 4.99831 2.90718 6.81262 2.07667 7.40923L2.90946 16.7741ZM16.2136 2.05201L15.784 6.88053C15.0238 7.43372 11.9594 9.36658 9.30163 6.77757C6.77012 4.31099 3.7531 5.10183 1.96585 6.16816L1.59972 2.05145H16.2136V2.05201ZM3.00598 17.8627L3.17962 19.8139H14.6342L14.8079 17.8627H3.00598Z" fill="white"/>
</svg>
