<svg width="18" height="16" viewBox="0 0 18 16" fill="none" xmlns="http://www.w3.org/2000/svg">
<path d="M0.541138 7.87293C0.541138 8.2295 0.815415 8.53806 1.25426 8.53806C1.46682 8.53806 1.65882 8.42149 1.83024 8.28435L8.63232 2.57253C8.82431 2.40796 9.04373 2.40796 9.23573 2.57253L16.0309 8.28435C16.1955 8.42149 16.3875 8.53806 16.6001 8.53806C17.0046 8.53806 17.3132 8.28435 17.3132 7.88665C17.3132 7.65351 17.2241 7.46838 17.0458 7.31752L15.119 5.69929V2.8468C15.119 2.53824 14.9201 2.34625 14.6116 2.34625H13.6653C13.3636 2.34625 13.1579 2.53824 13.1579 2.8468V4.04677L9.90771 1.31771C9.31115 0.817152 8.55689 0.817152 7.96034 1.31771L0.815415 7.31752C0.630278 7.46838 0.541138 7.67408 0.541138 7.87293ZM2.76964 14.0373C2.76964 15.0247 3.38676 15.6213 4.40845 15.6213H13.4527C14.4676 15.6213 15.0915 15.0247 15.0915 14.0373V8.82605L9.3523 4.01934C9.08488 3.7862 8.7626 3.79306 8.50204 4.01934L2.76964 8.82605V14.0373ZM10.7305 14.3322H7.13065V9.94373C7.13065 9.62145 7.34321 9.41574 7.66549 9.41574H10.2026C10.5248 9.41574 10.7305 9.62145 10.7305 9.94373V14.3322Z" fill="white"/>
</svg>
