<svg width="23" height="23" viewBox="0 0 23 23" fill="none" xmlns="http://www.w3.org/2000/svg">
<path d="M12.4102 2.40625V5.16414C15.4958 5.61013 17.8714 8.2497 17.8714 11.4627C17.8714 12.2819 17.7075 13.0555 17.4345 13.7746L19.801 15.1672C20.3107 14.0385 20.602 12.7825 20.602 11.4627C20.602 6.74788 17.0067 2.86135 12.4102 2.40625ZM11.5 17.834C7.97756 17.834 5.12865 14.9851 5.12865 11.4627C5.12865 8.2497 7.50426 5.61013 10.5898 5.16414V2.40625C5.98424 2.86135 2.39807 6.73877 2.39807 11.4627C2.39807 16.487 6.46664 20.5646 11.4909 20.5646C14.5037 20.5646 17.1705 19.0992 18.8271 16.8419L16.4606 15.4493C15.2955 16.9056 13.5115 17.834 11.5 17.834Z" fill="white"/>
</svg>
