<svg width="33" height="27" viewBox="0 0 33 27" fill="none" xmlns="http://www.w3.org/2000/svg">
<path d="M12.2534 5.23805C12.9798 7.44023 15.5354 9.19188 14.7867 10.8114C14.5019 11.427 14.4117 12.1803 14.2801 12.8381C14.1946 13.2302 14.2224 13.9609 14.2801 14.3581C14.5502 16.073 16.3355 17.0176 17.8267 17.9047C17.7337 17.8491 17.9187 17.9592 17.8267 17.9047C19.2397 18.752 20.9194 19.8874 21.3734 21.4514C21.6253 22.3202 21.2689 23.0861 21.3734 23.9847C21.4724 24.8104 21.9454 25.8135 22.3867 26.5181H32.0134C32.8589 25.5855 32.657 24.0708 32.0134 22.9714C31.325 21.7947 30.0231 20.8014 28.9734 19.9314C28.0665 19.1796 27.2929 18.502 26.9467 17.3981C26.8918 17.2234 26.9725 17.0727 26.9467 16.8914C26.8627 16.294 26.9684 13.1965 25.9334 11.3181C24.3324 8.41737 21.6598 8.90134 20.8667 7.26472C20.5625 6.6378 20.3495 -1.25177 15.2934 0.171385C14.8004 0.303331 14.1743 0.868717 13.7734 1.18472C13.3725 1.50072 13.0038 1.74932 12.7601 2.19805C12.5163 2.64678 12.3003 3.20949 12.2534 3.71805C12.2065 4.22661 12.0959 4.75226 12.2534 5.23805Z" fill="#DEE8F5"/>
<path d="M3.13338 17.3981C3.28026 17.4987 3.47415 17.333 3.64005 17.3981C5.01991 17.9138 8.65206 18.0671 9.21338 19.4247C9.47745 20.0629 9.49384 20.7984 9.72005 21.4514C10.2332 22.9325 11.7514 24.0738 13.2667 24.4914C13.812 24.6412 14.2468 24.3243 14.7867 24.4914C15.8291 24.8151 16.5612 25.7277 17.3201 26.5181H29.9867C29.9922 25.6961 29.8726 24.7077 29.4801 23.9847C29.0875 23.2618 28.6536 22.91 27.9601 22.4647C26.5767 21.5955 24.758 21.3462 23.4001 20.4381C22.5046 19.8388 21.8842 18.862 21.3734 17.9047C21.0485 17.2785 20.6077 16.5385 20.3601 15.8781C19.9801 14.8956 19.7033 13.9527 18.8401 13.3447C18.4291 13.0554 17.8079 12.965 17.3201 12.8381C16.0734 12.5129 15.1881 12.6528 14.2801 12.8381C13.1776 13.0618 12.1152 13.0623 10.7334 12.3314C8.28354 11.0344 4.68606 4.66632 1.10672 10.8114C-0.327872 13.2764 1.71337 16.4511 3.13338 17.3981Z" fill="#8DDBE0"/>
</svg>
