<svg width="20" height="29" viewBox="0 0 20 29" fill="none" xmlns="http://www.w3.org/2000/svg">
<path fill-rule="evenodd" clip-rule="evenodd" d="M18.325 0.927491H1.36985C1.21589 0.927491 1.06825 1.01121 0.959459 1.16021C0.850667 1.3092 0.789651 1.51125 0.789856 1.72181V23.7895C0.791571 26.1695 2.20159 28.0985 3.94174 28.1014H15.7539C17.4941 28.0985 18.9041 26.1695 18.9058 23.7895V1.72181C18.906 1.51106 18.8449 1.30886 18.7359 1.15983C18.627 1.01081 18.4791 0.92721 18.325 0.927491ZM17.7442 2.51508V9.67461C17.0849 10.5817 14.1679 14.0599 10.1304 10.9815C6.35502 8.11043 3.38584 9.31308 1.95063 10.2818V2.51933L17.7442 2.51508ZM3.94174 26.5138H15.7539C16.853 26.5115 17.7434 25.2928 17.7442 23.7895V11.7141C16.8097 12.652 15.2828 13.7951 13.3344 13.7951C12.2024 13.7951 10.9336 13.408 9.56521 12.367C5.65296 9.38645 2.74054 11.4132 1.95063 12.0927V23.7895C1.95148 25.2932 2.84231 26.5121 3.94174 26.5138Z" fill="#FF9000"/>
<path d="M18.325 0.927491V1.38039L18.3258 1.38039L18.325 0.927491ZM0.959459 1.16021L1.32523 1.42728L0.959459 1.16021ZM0.789856 1.72181H1.24276L1.24275 1.72137L0.789856 1.72181ZM0.789856 23.7895H0.336958L0.336958 23.7898L0.789856 23.7895ZM3.94174 28.1014L3.94098 28.5543H3.94174V28.1014ZM15.7539 28.1014V28.5543L15.7547 28.5543L15.7539 28.1014ZM18.9058 23.7895L19.3587 23.7898V23.7895H18.9058ZM18.9058 1.72181L18.4529 1.72137V1.72181H18.9058ZM18.7359 1.15983L18.3703 1.42714L18.7359 1.15983ZM17.7442 9.67461L18.1106 9.9409L18.1971 9.82182V9.67461H17.7442ZM17.7442 2.51508H18.1971V2.06206L17.7441 2.06218L17.7442 2.51508ZM10.1304 10.9815L10.405 10.6213L10.4046 10.621L10.1304 10.9815ZM1.95063 10.2818H1.49773V11.1339L2.204 10.6572L1.95063 10.2818ZM1.95063 2.51933L1.9505 2.06643L1.49773 2.06655V2.51933H1.95063ZM15.7539 26.5138V26.9667L15.7549 26.9667L15.7539 26.5138ZM3.94174 26.5138L3.94101 26.9667H3.94174V26.5138ZM17.7442 23.7895L18.1971 23.7898V23.7895H17.7442ZM17.7442 11.7141H18.1971V10.618L17.4234 11.3944L17.7442 11.7141ZM9.56521 12.367L9.29075 12.7273L9.29099 12.7275L9.56521 12.367ZM1.95063 12.0927L1.65528 11.7493L1.49773 11.8849V12.0927H1.95063ZM1.95063 23.7895H1.49773L1.49773 23.7898L1.95063 23.7895ZM1.36985 1.38039H18.325V0.474592H1.36985V1.38039ZM1.32523 1.42728C1.3462 1.39857 1.36355 1.38624 1.37112 1.38194C1.37783 1.37814 1.37681 1.38039 1.36985 1.38039V0.474592C1.04169 0.474592 0.768642 0.65353 0.59369 0.893132L1.32523 1.42728ZM1.24275 1.72137C1.24263 1.59281 1.28096 1.48792 1.32523 1.42728L0.59369 0.893132C0.420376 1.13049 0.336673 1.42968 0.336958 1.72226L1.24275 1.72137ZM1.24275 23.7895V1.72181H0.336958V23.7895H1.24275ZM3.9425 27.6485C3.25162 27.6473 2.58761 27.2647 2.07951 26.5696C1.57167 25.8748 1.24355 24.8934 1.24275 23.7892L0.336958 23.7898C0.337877 25.0656 0.715623 26.2387 1.34825 27.1041C1.98064 27.9693 2.89171 28.5525 3.94098 28.5543L3.9425 27.6485ZM15.7539 27.6485H3.94174V28.5543H15.7539V27.6485ZM18.4529 23.7892C18.4521 24.8934 18.124 25.8748 17.6161 26.5696C17.108 27.2647 16.444 27.6473 15.7532 27.6485L15.7547 28.5543C16.8039 28.5525 17.715 27.9693 18.3474 27.1041C18.98 26.2387 19.3578 25.0656 19.3587 23.7898L18.4529 23.7892ZM18.4529 1.72181V23.7895H19.3587V1.72181H18.4529ZM18.3703 1.42714C18.4146 1.48774 18.453 1.59268 18.4529 1.72137L19.3587 1.72226C19.359 1.42944 19.2751 1.12998 19.1015 0.892522L18.3703 1.42714ZM18.3258 1.38039C18.3189 1.3804 18.3178 1.37815 18.3245 1.38191C18.332 1.38617 18.3493 1.39845 18.3703 1.42714L19.1015 0.892522C18.9262 0.65279 18.6527 0.473994 18.3242 0.474593L18.3258 1.38039ZM18.1971 9.67461V2.51508H17.2913V9.67461H18.1971ZM9.85583 11.3416C10.9203 12.1533 11.936 12.5509 12.8817 12.6538C13.827 12.7566 14.6723 12.5617 15.3915 12.2349C16.8147 11.5882 17.7652 10.4161 18.1106 9.9409L17.3779 9.40833C17.064 9.84019 16.2263 10.8607 15.0168 11.4103C14.4196 11.6816 13.7374 11.8357 12.9797 11.7533C12.2223 11.6709 11.3593 11.3489 10.405 10.6213L9.85583 11.3416ZM2.204 10.6572C2.87628 10.2034 3.89762 9.70216 5.18337 9.64416C6.45998 9.58657 8.0437 9.96357 9.85629 11.342L10.4046 10.621C8.44176 9.12832 6.65318 8.67113 5.14255 8.73928C3.64105 8.80702 2.46019 9.39144 1.69725 9.90639L2.204 10.6572ZM1.49773 2.51933V10.2818H2.40352V2.51933H1.49773ZM17.7441 2.06218L1.9505 2.06643L1.95075 2.97223L17.7444 2.96798L17.7441 2.06218ZM15.7539 26.0609H3.94174V26.9667H15.7539V26.0609ZM17.2913 23.7893C17.291 24.4552 17.093 25.0398 16.7952 25.4474C16.4973 25.8552 16.1233 26.0601 15.7529 26.0609L15.7549 26.9667C16.4836 26.9652 17.1044 26.5596 17.5266 25.9817C17.9491 25.4035 18.1967 24.6272 18.1971 23.7898L17.2913 23.7893ZM17.2913 11.7141V23.7895H18.1971V11.7141H17.2913ZM13.3344 14.248C15.4625 14.248 17.0994 13.0029 18.0651 12.0338L17.4234 11.3944C16.52 12.3011 15.103 13.3422 13.3344 13.3422V14.248ZM9.29099 12.7275C10.7274 13.8203 12.0906 14.248 13.3344 14.248V13.3422C12.3142 13.3422 11.1397 12.9958 9.83943 12.0066L9.29099 12.7275ZM2.24597 12.436C2.60679 12.1257 3.4579 11.5044 4.66141 11.3041C5.8459 11.1069 7.42722 11.3075 9.29075 12.7273L9.83968 12.0068C7.79095 10.4459 5.95993 10.1697 4.51267 10.4106C3.08444 10.6483 2.08438 11.3802 1.65528 11.7493L2.24597 12.436ZM2.40352 23.7895V12.0927H1.49773V23.7895H2.40352ZM3.94246 26.0609C3.57198 26.0603 3.19796 25.8555 2.89987 25.4477C2.60202 25.0401 2.4039 24.4553 2.40352 23.7893L1.49773 23.7898C1.4982 24.6274 1.74593 25.4039 2.16857 25.9821C2.59096 26.5601 3.21207 26.9656 3.94101 26.9667L3.94246 26.0609Z" fill="#FF9000"/>
</svg>
