<svg width="28" height="27" viewBox="0 0 28 27" fill="none" xmlns="http://www.w3.org/2000/svg">
<path d="M21.4437 11.0948V10.3226C21.4437 6.08528 18.1318 2.6507 14.0511 2.6507C9.9703 2.6507 6.65838 6.08528 6.65838 10.3226V11.0948C6.6597 12.0164 6.39668 12.9192 5.9005 13.6959L4.687 15.5851C3.57975 17.3101 4.42525 19.6549 6.35172 20.2003C11.3854 21.6274 16.7167 21.6274 21.7504 20.2003C23.6769 19.6549 24.5224 17.3101 23.4151 15.5862L22.2016 13.697C21.705 12.9204 21.4416 12.0176 21.4426 11.0959L21.4437 11.0948Z" stroke="#171621" stroke-width="1.64282"/>
<path d="M9.12256 21.2691C9.83992 23.1836 11.7752 24.5548 14.051 24.5548C16.3269 24.5548 18.2621 23.1836 18.9795 21.2691" stroke="#171621" stroke-width="1.64282" stroke-linecap="round"/>
<circle cx="19.5266" cy="7.03154" r="4.38084" fill="#FCFBFC"/>
<circle cx="19.5265" cy="7.03125" r="2.92056" fill="#ED544E"/>
</svg>
