<svg width="16" height="19" viewBox="0 0 16 19" fill="none" xmlns="http://www.w3.org/2000/svg">
<path d="M8.07281 0.383484C3.22148 4.52487 0.79126 8.10193 0.79126 11.1238C0.79126 15.6565 4.25 18.5874 8.07281 18.5874C11.8956 18.5874 15.3544 15.6565 15.3544 11.1238C15.3544 8.10193 12.9241 4.52487 8.07281 0.383484ZM8.07281 16.767C5.02366 16.767 2.61165 14.4278 2.61165 11.1238C2.61165 8.99392 4.38653 6.17232 8.07281 2.8046C11.7591 6.17232 13.534 8.98482 13.534 11.1238C13.534 14.4278 11.122 16.767 8.07281 16.767ZM4.2773 11.3058C4.61408 11.3058 4.88713 11.5425 4.95085 11.8701C5.32403 13.8908 7.02609 14.5825 8.26395 14.4824C8.65534 14.4642 8.98301 14.7737 8.98301 15.165C8.98301 15.5291 8.69174 15.8295 8.32767 15.8477C6.38895 15.966 4.12257 14.8556 3.60376 12.0977C3.53094 11.6881 3.85861 11.3058 4.2773 11.3058Z" fill="#49454F"/>
</svg>
