<svg width="33" height="27" viewBox="0 0 33 27" fill="none" xmlns="http://www.w3.org/2000/svg">
<path d="M21.2533 5.23805C20.527 7.44023 17.9714 9.19188 18.7199 10.8114C19.0049 11.427 19.0951 12.1803 19.2266 12.8381C19.312 13.2302 19.2842 13.9609 19.2266 14.3581C18.9565 16.073 17.1712 17.0176 15.6799 17.9047C15.588 17.9592 15.7731 17.8491 15.6799 17.9047C14.267 18.752 12.5872 19.8874 12.1333 21.4514C11.8814 22.3202 12.2376 23.0861 12.1333 23.9847C12.0343 24.8104 11.5613 25.8135 11.1199 26.5181H1.49328C0.647794 25.5855 0.849806 24.0708 1.49328 22.9714C2.18171 21.7947 3.48341 20.8014 4.53328 19.9314C5.44007 19.1796 6.21379 18.502 6.55994 17.3981C6.61495 17.2234 6.53412 17.0727 6.55994 16.8914C6.64395 16.294 6.53826 13.1965 7.57328 11.3181C9.17356 8.41737 11.8466 8.90134 12.6399 7.26472C12.9441 6.6378 13.1572 -1.25177 18.2133 0.171385C18.7063 0.303319 19.3323 0.868722 19.7333 1.18472C20.1342 1.50072 20.5029 1.74932 20.7466 2.19805C20.9903 2.64678 21.2064 3.20948 21.2533 3.71805C21.3002 4.22662 21.4108 4.75226 21.2533 5.23805Z" fill="#DEE8F5"/>
<path d="M30.3733 17.3981C30.2265 17.4987 30.0325 17.3331 29.8666 17.3981C28.4868 17.9138 24.8547 18.0671 24.2933 19.4247C24.0293 20.0629 24.0127 20.7984 23.7866 21.4514C23.2735 22.9326 21.7554 24.0738 20.24 24.4914C19.6947 24.6412 19.2597 24.3243 18.72 24.4914C17.6776 24.8151 16.9454 25.7277 16.1866 26.5181H3.51996C3.51445 25.6961 3.63407 24.7077 4.02662 23.9847C4.41917 23.2617 4.85309 22.9099 5.54662 22.4647C6.92996 21.5955 8.74852 21.3462 10.1066 20.4381C11.0021 19.8388 11.6223 18.862 12.1333 17.9047C12.4582 17.2784 12.899 16.5385 13.1466 15.8781C13.5267 14.8956 13.8034 13.9527 14.6666 13.3447C15.0777 13.0554 15.6987 12.965 16.1866 12.8381C17.4333 12.5128 18.3186 12.6528 19.2266 12.8381C20.3287 13.0622 21.3922 13.0621 22.7733 12.3314C25.223 11.0344 28.8205 4.66613 32.4 10.8114C33.8351 13.2758 31.7934 16.4511 30.3733 17.3981Z" fill="#8DDBE0"/>
</svg>
