<svg width="24" height="29" viewBox="0 0 24 29" fill="none" xmlns="http://www.w3.org/2000/svg">
<path fill-rule="evenodd" clip-rule="evenodd" d="M6.09621 28.1014H17.7109L19.6101 4.8721H4.19696L6.09621 28.1014ZM17.0534 27.2248H6.75365L5.00049 5.74868H18.8066L17.0534 27.2248Z" fill="#6BD590"/>
<path d="M17.7109 28.1014V28.5543H18.1282L18.1623 28.1383L17.7109 28.1014ZM6.09621 28.1014L5.64482 28.1383L5.67883 28.5543H6.09621V28.1014ZM19.6101 4.8721L20.0615 4.90901L20.1016 4.4192H19.6101V4.8721ZM4.19696 4.8721V4.4192H3.70552L3.74557 4.90901L4.19696 4.8721ZM6.75365 27.2248L6.30225 27.2617L6.33621 27.6777H6.75365V27.2248ZM17.0534 27.2248V27.6777H17.4709L17.5048 27.2617L17.0534 27.2248ZM5.00049 5.74868V5.29578H4.50912L4.5491 5.78552L5.00049 5.74868ZM18.8066 5.74868L19.258 5.78552L19.298 5.29578H18.8066V5.74868ZM17.7109 27.6485H6.09621V28.5543H17.7109V27.6485ZM19.1587 4.83519L17.2595 28.0645L18.1623 28.1383L20.0615 4.90901L19.1587 4.83519ZM4.19696 5.325H19.6101V4.4192H4.19696V5.325ZM6.5476 28.0645L4.64835 4.83519L3.74557 4.90901L5.64482 28.1383L6.5476 28.0645ZM6.75365 27.6777H17.0534V26.7719H6.75365V27.6777ZM4.5491 5.78552L6.30225 27.2617L7.20505 27.188L5.45189 5.71183L4.5491 5.78552ZM18.8066 5.29578H5.00049V6.20157H18.8066V5.29578ZM17.5048 27.2617L19.258 5.78552L18.3552 5.71183L16.602 27.188L17.5048 27.2617Z" fill="#6BD590"/>
<path d="M10.0774 14.0761H9.34688C9.34688 12.8489 8.54335 11.8847 7.52067 11.8847C6.498 11.8847 5.69447 12.8489 5.69447 14.0761H4.96399C4.96399 12.3668 6.09624 11.0081 7.52067 11.0081C8.94511 11.0081 10.0774 12.3668 10.0774 14.0761Z" fill="#6BD590" stroke="#6BD590" stroke-width="0.905797"/>
<rect x="6.05969" y="24.1568" width="11.6877" height="0.876578" fill="#6BD590" stroke="#6BD590" stroke-width="0.905797"/>
<path d="M14.4602 14.0761H13.7298C13.7298 12.8489 12.9262 11.8847 11.9035 11.8847C10.8809 11.8847 10.0773 12.8489 10.0773 14.0761H9.34686C9.34686 12.3668 10.4791 11.0081 11.9035 11.0081C13.328 11.0081 14.4602 12.3668 14.4602 14.0761Z" fill="#6BD590" stroke="#6BD590" stroke-width="0.905797"/>
<path d="M18.8431 14.0761H18.1126C18.1126 12.8489 17.3091 11.8847 16.2864 11.8847C15.2637 11.8847 14.4602 12.8489 14.4602 14.0761H13.7297C13.7297 12.3668 14.862 11.0081 16.2864 11.0081C17.7109 11.0081 18.8431 12.3668 18.8431 14.0761Z" fill="#6BD590" stroke="#6BD590" stroke-width="0.905797"/>
<path d="M9.7121 24.5951L9.34686 14.0762V13.6379H10.0773V14.0762L10.4426 24.5951H9.7121Z" fill="#6BD590" stroke="#6BD590" stroke-width="0.905797"/>
<path d="M13.3631 24.5722L13.7312 14.0628L14.4611 14.0996L14.0929 24.6091L13.3631 24.5722Z" fill="#6BD590" stroke="#6BD590" stroke-width="0.905797"/>
<path d="M11.1366 24.3321L10.4791 23.9815L17.4552 3.64488L22.7147 0.971313L23.0069 1.76023L18.0396 4.34614L11.1366 24.3321Z" fill="#6BD590" stroke="#6BD590" stroke-width="0.905797"/>
<rect x="5.32922" y="14.9527" width="13.1487" height="0.876578" fill="#6BD590" stroke="#6BD590" stroke-width="0.905797"/>
<path fill-rule="evenodd" clip-rule="evenodd" d="M1.31158 5.31038C1.31158 7.50183 2.77255 9.25498 4.59875 9.25498C6.42496 9.25498 7.88592 7.50183 7.88592 5.31038C7.88592 3.11894 6.42496 1.36578 4.59875 1.36578C2.77255 1.36578 1.31158 3.11894 1.31158 5.31038ZM2.04207 5.31038C2.04207 3.60106 3.17432 2.24236 4.59876 2.24236C6.0232 2.24236 7.15544 3.60106 7.15544 5.31038C7.15544 7.01971 6.0232 8.37841 4.59876 8.37841C3.17432 8.37841 2.04207 7.01971 2.04207 5.31038Z" fill="#6BD590"/>
<path d="M4.59875 8.80209C3.09649 8.80209 1.76448 7.33252 1.76448 5.31038H0.858686C0.858686 7.67113 2.44861 9.70788 4.59875 9.70788V8.80209ZM7.43302 5.31038C7.43302 7.33252 6.10102 8.80209 4.59875 8.80209V9.70788C6.74889 9.70788 8.33882 7.67113 8.33882 5.31038H7.43302ZM4.59875 1.81868C6.10102 1.81868 7.43302 3.28824 7.43302 5.31038H8.33882C8.33882 2.94963 6.74889 0.912885 4.59875 0.912885V1.81868ZM1.76448 5.31038C1.76448 3.28824 3.09649 1.81868 4.59875 1.81868V0.912885C2.44861 0.912885 0.858686 2.94963 0.858686 5.31038H1.76448ZM4.59876 1.78946C2.85038 1.78946 1.58917 3.43175 1.58917 5.31038H2.49497C2.49497 3.77036 3.49826 2.69526 4.59876 2.69526V1.78946ZM7.60834 5.31038C7.60834 3.43175 6.34714 1.78946 4.59876 1.78946V2.69526C5.69926 2.69526 6.70255 3.77036 6.70255 5.31038H7.60834ZM4.59876 8.8313C6.34714 8.8313 7.60834 7.18901 7.60834 5.31038H6.70255C6.70255 6.85041 5.69926 7.92551 4.59876 7.92551V8.8313ZM1.58917 5.31038C1.58917 7.18901 2.85038 8.8313 4.59876 8.8313V7.92551C3.49826 7.92551 2.49497 6.85041 2.49497 5.31038H1.58917Z" fill="#6BD590"/>
<path d="M3.21083 3.8202L3.79522 3.29426L4.89094 5.04741L4.30655 5.57336L3.21083 3.8202Z" fill="#6BD590" stroke="#6BD590" stroke-width="0.905797"/>
<path d="M2.91891 6.27479L4.37969 4.95949L4.81812 5.66066L3.35734 6.97597L2.91891 6.27479Z" fill="#6BD590" stroke="#6BD590" stroke-width="0.905797"/>
</svg>
